<?xml version="1.0" encoding="UTF-8" standalone="no"?>
<!-- Created with Inkscape (http://www.inkscape.org/) -->

<svg
   version="1.1"
   id="svg2"
   width="208.34685"
   height="111.69705"
   viewBox="0 0 208.34685 111.69705"
   xmlns="http://www.w3.org/2000/svg"
   xmlns:svg="http://www.w3.org/2000/svg">
  <defs
     id="defs6" />
  <g
     id="g8"
     transform="translate(-43.478711,-681.6562)">
    <path
       style="fill:#ffffff;stroke-width:0.202755"
       d="m 43.478711,681.65676 c 0,36.08829 4.19e-4,107.404 4.19e-4,111.6937 11.441008,0 23.682813,0.002 33.025862,0.002 0,-27.44838 -0.58011,-59.21386 -0.58011,-84.03991 0,-2.06001 3.605626,-2.09332 3.605626,0.11357 0,24.18187 -0.268695,49.55553 -0.268695,73.27896 0.37331,5.89184 4.900092,10.64417 9.26514,10.64417 8.365238,0 15.273647,0.004 23.358857,0.004 0,-27.53121 -0.33062,-60.13399 -0.33748,-83.88616 -5.7e-4,-1.96515 3.39854,-2.16986 3.39854,-0.0192 0,23.83984 -0.33765,51.66465 -0.0922,74.10958 0,4.70413 3.559,9.79477 8.41323,9.79477 42.80371,0 114.89999,-0.0175 128.55675,-0.0249 0,-8.41063 9.1e-4,-20.9144 9.1e-4,-28.63415 -35.99976,0.0244 -71.58912,0.36387 -105.0359,0.36387 0,-21.07966 -0.25253,-53.59027 -0.47327,-73.27083 0.12874,-7.08737 -6.57505,-9.98492 -11.15973,-10.12203 -6.18154,-0.008 -75.366451,-0.008 -91.677949,-0.008 z"
       id="path201" />
    <path
       style="fill:#ffffff;stroke-width:0.202755"
       d="m 149.68324,690.50796 c -0.15657,19.55777 -0.0493,42.66752 -0.0493,61.47515 -0.032,4.42725 1.6501,9.98065 8.08579,9.98065 17.97498,0 34.7123,0.0104 51.46982,10e-4 4.84877,0 8.25496,-5.56636 8.25496,-9.99632 0,-20.65977 -5.2e-4,-52.0441 -5.2e-4,-60.62852 0,-4.53821 -4.75125,-9.66683 -8.91068,-9.66683 -17.5559,0.003 -35.80689,0.0184 -48.52423,0.0184 -8.00329,0 -10.32614,4.8117 -10.32614,8.81597 z m 35.1349,18.50384 c 0,8.94706 -0.0271,18.2647 -0.0271,27.29181 -0.0384,1.36752 -3.26586,1.31541 -3.26586,-0.0374 0,-9.09832 -0.13246,-22.05151 -0.1679,-27.37687 0,-1.52559 3.46086,-1.37819 3.46086,0.12246 z"
       id="path203" />
    <path
       style="fill:#ffffff"
       d="m 219.58698,711.0605 -0.004,50.89141 32.20194,0.0182 -0.003,-50.90963 z"
       id="path366" />
    <path
       style="fill:#ffffff"
       d="m 219.5644,707.79359 32.22616,-0.003 -5.5e-4,-26.10096 -32.19962,-0.0156 z"
       id="path368" />
  </g>
</svg>
